<svg xmlns="http://www.w3.org/2000/svg" xmlns:xlink="http://www.w3.org/1999/xlink" aria-hidden="true" role="img" class="iconify iconify--logos" width="35.93" height="32" preserveAspectRatio="xMidYMid meet" viewBox="0 0 256 228"><path fill="#00D8FF" d="M210.483 73.824a171.49 171.49 0 0 0-8.24-2.597c.465-1.9.893-3.777 1.273-5.621c6.238-30.281 2.16-54.676-11.769-62.708c-13.355-7.7-35.196.329-57.254 19.526a171.23 171.23 0 0 0-6.375 5.848a155.866 155.866 0 0 0-4.241-3.917C100.759 3.829 77.587-4.822 63.673 3.233C50.33 10.957 46.379 33.89 51.995 62.588a170.974 170.974 0 0 0 1.892 8.48c-3.28.932-6.445 1.924-9.474 2.98C17.309 83.498 0 98.307 0 113.668c0 15.865 18.582 32.168 46.812 40.987a145.52 145.52 0 0 0 6.921 2.165a167.467 167.467 0 0 0-2.01 9.138c-5.354 28.2-1.173 50.591 12.134 58.266c13.744 7.926 36.812-.22 59.273-19.855a145.567 145.567 0 0 0 5.342-4.923a168.064 168.064 0 0 0 6.92 6.314c21.758 18.722 43.914 26.282 57.067 18.586c13.325-7.834 17.597-31.477 11.508-61.614a145.016 145.016 0 0 0-1.535-6.842c1.62-.48 3.21-.974 4.76-1.488c29.348-8.966 48.431-25.416 48.431-41.621c0-15.362-17.309-30.171-45.517-39.844ZM128.814 163.483c-18.91 16.514-37.156 23.192-47.44 18.586c-10.284-4.605-13.238-22.986-8.24-47.527a156.636 156.636 0 0 1 1.892-8.48c1.62.465 3.28.92 4.96 1.363c7.039 1.894 14.689 3.52 22.787 4.836c8.098 1.315 16.604 1.98 25.374 1.98s17.276-.665 25.374-1.98c8.098-1.315 15.748-2.942 22.787-4.836a156.636 156.636 0 0 1 4.96-1.363c.64 2.826 1.24 5.597 1.792 8.3c4.998 24.541 2.044 42.922-8.24 47.527c-10.284 4.606-28.53-2.072-47.44-18.586Zm47.44-120.217c10.284 4.605 13.238 22.986 8.24 47.527c-.552 2.703-1.152 5.474-1.792 8.3a156.636 156.636 0 0 1-4.96-1.363c-7.039-1.894-14.689-3.52-22.787-4.836c-8.098-1.315-16.604-1.98-25.374-1.98s-17.276.665-25.374 1.98c-8.098 1.315-15.748 2.942-22.787 4.836a156.636 156.636 0 0 1-4.96 1.363c-.64-2.826-1.24-5.597-1.792-8.3c-4.998-24.541-2.044-42.922 8.24-47.527c18.91-16.514 37.156-23.192 47.44-18.586Zm-47.44 13.836c-22.619 0-40.957 18.338-40.957 40.957s18.338 40.957 40.957 40.957s40.957-18.338 40.957-40.957s-18.338-40.957-40.957-40.957Zm0 58.609c-9.751 0-17.652-7.901-17.652-17.652s7.901-17.652 17.652-17.652s17.652 7.901 17.652 17.652s-7.901 17.652-17.652 17.652Z"></path></svg> 